<svg width="28" height="28" viewBox="0 0 28 28" fill="none" xmlns="http://www.w3.org/2000/svg">
<g id="email 1" clip-path="url(#clip0_19_94)">
<g id="Group">
<g id="Group_2">
<path id="Vector" d="M13.9997 0C6.26796 0 0 6.26814 0 13.9999C0 21.7314 6.26796 28 13.9997 28C21.7314 28 27.9998 21.7314 27.9998 13.9999C27.9998 6.26814 21.7314 0 13.9997 0ZM14 4.91741L22.2846 10.0835H5.71532L14 4.91741ZM22.3878 18.333H22.387C22.387 19.1616 21.7154 19.8331 20.8869 19.8331H7.113C6.28438 19.8331 5.61294 19.1615 5.61294 18.333V10.4122C5.61294 10.3245 5.6219 10.2393 5.63646 10.1556L13.5519 15.0914C13.5617 15.0975 13.572 15.1016 13.582 15.1072C13.5925 15.113 13.6031 15.1186 13.6137 15.1239C13.6696 15.1527 13.7272 15.176 13.7861 15.1912C13.7922 15.1929 13.7983 15.1936 13.8043 15.195C13.8689 15.2102 13.9343 15.2197 13.9997 15.2197H14.0001C14.0006 15.2197 14.0011 15.2197 14.0011 15.2197C14.0664 15.2197 14.1318 15.2105 14.1964 15.195C14.2025 15.1935 14.2086 15.1929 14.2146 15.1912C14.2734 15.176 14.3308 15.1527 14.387 15.1239C14.3976 15.1186 14.4083 15.113 14.4187 15.1072C14.4286 15.1016 14.4391 15.0975 14.4488 15.0914L22.3643 10.1556C22.3788 10.2393 22.3878 10.3244 22.3878 10.4122V18.333Z" fill="#10B981"/>
</g>
</g>
</g>
<defs>
<clipPath id="clip0_19_94">
<rect width="28" height="28" fill="white"/>
</clipPath>
</defs>
</svg>
