<svg width="28" height="28" viewBox="0 0 28 28" fill="none" xmlns="http://www.w3.org/2000/svg">
<g id="tabler-icon-message-2">
<path id="Vector" d="M9.33333 10.5001H18.6667M9.33333 15.1667H16.3333M10.5 21.0001H7C6.07174 21.0001 5.1815 20.6313 4.52513 19.975C3.86875 19.3186 3.5 18.4283 3.5 17.5001V8.16675C3.5 7.23849 3.86875 6.34825 4.52513 5.69187C5.1815 5.0355 6.07174 4.66675 7 4.66675H21C21.9283 4.66675 22.8185 5.0355 23.4749 5.69187C24.1313 6.34825 24.5 7.23849 24.5 8.16675V17.5001C24.5 18.4283 24.1313 19.3186 23.4749 19.975C22.8185 20.6313 21.9283 21.0001 21 21.0001H17.5L14 24.5001L10.5 21.0001Z" stroke="#12132D" stroke-opacity="0.6" stroke-width="1.5" stroke-linecap="round" stroke-linejoin="round"/>
</g>
</svg>
